<svg width="20" height="20" viewBox="0 0 20 20" fill="none" xmlns="http://www.w3.org/2000/svg">
<path d="M1 0H2V2H0V1C0 0.45 0.45 0 1 0ZM17 0C17.55 0 18 0.45 18 1V2H16V0H17ZM12 2V0H14V2H12ZM8 2V0H10V2H8ZM4 2V0H6V2H4ZM8 18V16H10V18H8ZM4 18V16H6V18H4ZM1 18C0.45 18 0 17.55 0 17V16H2V18H1ZM0 12H2V14H0V12ZM0 8H2V10H0V8ZM0 4H2V6H0V4ZM18 4V6H16V4H18ZM16.5 10C18.4 10 20 11.6 20 13.5C20 16.1 16.5 20 16.5 20C16.5 20 13 16.1 13 13.5C13 11.6 14.6 10 16.5 10ZM16.5 14.8C17.2 14.8 17.8 14.2 17.7 13.6C17.7 13 17.1 12.4 16.5 12.4C15.9 12.4 15.3 12.9 15.3 13.6C15.3 14.2 15.8 14.8 16.5 14.8Z" fill="white"/>
</svg>
