<svg width="220" height="131" viewBox="0 0 220 131" fill="none" xmlns="http://www.w3.org/2000/svg">
<path d="M76.4164 26.2936C76.2376 26.2938 76.0592 26.275 75.8842 26.2377C75.1999 26.096 74.5994 25.6894 74.2138 25.1065C73.8281 24.5237 73.6887 23.812 73.8259 23.1267C75.9371 12.8088 81.915 5.66362 91.5919 1.88225C98.8812 -0.964072 107.911 -0.567113 116.371 2.9702C125.107 6.62514 132.028 13.2616 135.357 21.1772C135.523 21.501 135.621 21.8556 135.644 22.2188C135.667 22.5821 135.615 22.9461 135.491 23.2883C135.367 23.6304 135.173 23.9433 134.923 24.2073C134.672 24.4714 134.37 24.6809 134.035 24.8228C133.7 24.9647 133.339 25.036 132.975 25.0322C132.611 25.0283 132.252 24.9495 131.92 24.8005C131.588 24.6515 131.29 24.4356 131.045 24.1664C130.8 23.8971 130.613 23.5802 130.497 23.2355C127.697 16.5843 121.808 10.977 114.324 7.85129C107.22 4.87853 99.4369 4.4904 93.4973 6.81038C85.5964 9.89488 80.7094 15.7463 78.9805 24.2C78.8572 24.7936 78.5338 25.327 78.0644 25.7107C77.595 26.0945 77.008 26.3054 76.4017 26.3083" fill="#2E2E2E"/>
<path d="M79.6777 62.0454C79.0798 62.0431 78.5003 61.8384 78.0337 61.4646C77.567 61.0908 77.2406 60.5701 77.1078 59.9871C76.2609 56.2793 75.5935 52.2891 74.9495 48.4283L74.8525 47.8403C74.6113 46.3877 74.3614 44.8822 74.1027 43.4296C73.422 39.714 73.0532 35.9479 73 32.1708C73 31.4735 73.2751 30.8043 73.7657 30.3088C74.2563 29.8133 74.9227 29.5314 75.6199 29.5244H75.6376C76.3349 29.5244 77.004 29.7996 77.4995 30.2901C77.9951 30.7807 78.277 31.4471 78.2839 32.1443C78.3347 35.6256 78.676 39.0965 79.3043 42.521C79.566 44.0148 79.8188 45.532 80.0629 46.9993L80.1599 47.5697C80.7892 51.3541 81.4449 55.2648 82.2564 58.8198C82.4068 59.5011 82.282 60.2142 81.9092 60.804C81.5364 61.3938 80.9457 61.8125 80.2658 61.969C80.0728 62.013 79.8756 62.0357 79.6777 62.0366" fill="#2E2E2E"/>
<path d="M98.9114 84.3934C97.6705 84.3934 96.4032 84.3356 95.1094 84.22C94.4543 84.1075 93.8655 83.7527 93.4601 83.2259C93.0547 82.6992 92.8623 82.0393 92.9212 81.3772C92.9801 80.7151 93.286 80.0995 93.778 79.6526C94.2701 79.2058 94.9123 78.9605 95.5769 78.9654C102.384 79.5741 108.041 78.4244 113.378 75.3487C124.734 68.38 132.326 56.5007 133.688 43.56C133.811 42.9078 134.176 42.326 134.709 41.9299C135.241 41.5339 135.903 41.3525 136.563 41.4217C137.224 41.4909 137.834 41.8056 138.273 42.3035C138.712 42.8015 138.947 43.4462 138.933 44.1098C137.401 58.6825 128.865 72.0437 116.104 79.8623L116.045 79.8975C110.832 82.9085 105.195 84.3934 98.9114 84.3934Z" fill="#2E2E2E"/>
<path d="M88.636 54.1013C88.0381 54.0989 87.4586 53.8942 86.9919 53.5204C86.5253 53.1467 86.1989 52.6259 86.0661 52.043C85.4026 48.9855 84.9263 45.8903 84.64 42.7748C83.6314 32.6039 85.8161 24.0767 90.756 18.7634C91.2478 18.3212 91.8873 18.0792 92.5486 18.0851C93.2099 18.0909 93.8451 18.3441 94.329 18.7948C94.8129 19.2456 95.1106 19.8611 95.1633 20.5204C95.216 21.1796 95.02 21.8346 94.6139 22.3566C90.709 26.5466 89.0271 33.6125 89.8886 42.2543C90.1526 45.1564 90.5945 48.0395 91.2118 50.8874C91.2965 51.2732 91.2938 51.673 91.2038 52.0576C91.1139 52.4422 90.939 52.8017 90.692 53.1099C90.445 53.4181 90.1321 53.6671 89.7764 53.8386C89.4206 54.0102 89.0309 54.0999 88.636 54.1013Z" fill="#2E2E2E"/>
<path d="M103.198 70.6493C102.234 70.6507 101.274 70.5522 100.331 70.3553C96.0876 69.4173 92.6297 66.8062 90.0392 62.5926C89.7402 61.9999 89.6749 61.3165 89.8563 60.6779C90.0376 60.0393 90.4523 59.4921 91.0182 59.145C91.584 58.7979 92.2597 58.6761 92.9111 58.8038C93.5625 58.9315 94.1422 59.2994 94.5351 59.8345C96.367 62.8249 98.6281 64.5803 101.451 65.2037C102.031 65.3281 102.622 65.3902 103.215 65.3889C106.991 65.3889 111.475 63.0366 115.197 59.1082C119.739 54.2765 122.478 48.0272 122.951 41.4128C123.457 34.3764 120.961 27.6899 116.1 23.0705C111.722 18.9098 106.241 17.1544 101.445 18.3658C101.099 18.4869 100.731 18.5346 100.365 18.5059C99.9987 18.4771 99.6428 18.3726 99.3194 18.1988C98.9961 18.0251 98.7124 17.786 98.4864 17.4967C98.2605 17.2074 98.0971 16.8743 98.0069 16.5185C97.9166 16.1627 97.9013 15.792 97.962 15.43C98.0227 15.068 98.1581 14.7225 98.3595 14.4157C98.5609 14.1088 98.8239 13.8471 99.1319 13.6474C99.4398 13.4476 99.786 13.3141 100.148 13.2554C106.711 11.5882 114.033 13.8229 119.734 19.2391C125.739 24.9494 128.829 33.1649 128.209 41.7833C127.652 49.6148 124.407 57.0136 119.023 62.7278C114.256 67.7648 108.49 70.6523 103.2 70.6523" fill="#2E2E2E"/>
<path d="M99.765 55.6684C99.1418 55.6662 98.5393 55.4441 98.0638 55.0412C97.5883 54.6383 97.2702 54.0805 97.1657 53.4661C96.9157 51.9606 96.5247 50.0964 96.0718 47.9381C95.6425 45.8798 95.1574 43.5686 94.6692 40.9811C94.57 40.6278 94.5454 40.2578 94.5968 39.8945C94.6483 39.5312 94.7747 39.1826 94.968 38.8708C95.1614 38.559 95.4175 38.2908 95.7201 38.0832C96.0227 37.8757 96.3651 37.7333 96.7256 37.6652C97.0861 37.597 97.4569 37.6046 97.8143 37.6874C98.1718 37.7702 98.5081 37.9265 98.8019 38.1462C99.0958 38.366 99.3407 38.6444 99.5212 38.9639C99.7016 39.2833 99.8137 39.6368 99.8503 40.0019C100.327 42.5395 100.809 44.833 101.232 46.856C101.697 49.0702 102.114 50.9726 102.367 52.5986C102.48 53.2881 102.315 53.994 101.909 54.5624C101.503 55.1309 100.889 55.5158 100.2 55.6332C100.056 55.6564 99.9108 55.6682 99.765 55.6684Z" fill="#2E2E2E"/>
<path d="M108.079 53.7014C107.885 53.7014 107.697 53.7014 107.512 53.6808C107.145 53.6908 106.78 53.6244 106.44 53.4859C106.101 53.3474 105.793 53.1397 105.538 52.8761C105.283 52.6125 105.085 52.2987 104.958 51.9546C104.831 51.6106 104.776 51.2438 104.798 50.8775C104.82 50.5113 104.918 50.1536 105.085 49.8271C105.253 49.5007 105.486 49.2127 105.771 48.9813C106.056 48.75 106.386 48.5804 106.739 48.4833C107.093 48.3863 107.463 48.3638 107.826 48.4175C107.909 48.4175 107.994 48.4175 108.079 48.4175C108.888 48.4175 109.779 48.0176 110.593 47.2942C112.358 45.727 113.454 43.0983 113.534 40.2637C113.622 37.5644 112.681 35.0533 111.02 33.5448C110.046 32.6627 108.938 32.2511 107.894 32.3922C106.946 32.5289 106.09 33.0326 105.509 33.7948C105.304 34.0995 105.037 34.3582 104.726 34.5542C104.416 34.7502 104.067 34.8794 103.704 34.9334C103.34 34.9874 102.97 34.9651 102.615 34.868C102.261 34.7708 101.93 34.6009 101.645 34.3691C101.36 34.1372 101.126 33.8485 100.959 33.5214C100.792 33.1943 100.694 32.8358 100.673 32.469C100.652 32.1021 100.707 31.7348 100.835 31.3905C100.964 31.0462 101.163 30.7324 101.419 30.4692C102.842 28.6587 104.915 27.4742 107.197 27.1671C109.793 26.8143 112.416 27.6934 114.548 29.64C117.342 32.1776 118.926 36.2118 118.788 40.4342C118.65 44.6567 116.889 48.7203 114.084 51.2314C112.319 52.8163 110.164 53.6896 108.062 53.6896" fill="#2E2E2E"/>
<path d="M98.7199 33.8535C98.7199 34.3811 98.5634 34.8968 98.2702 35.3355C97.9771 35.7741 97.5604 36.1159 97.0729 36.3177C96.5854 36.5195 96.049 36.5721 95.5316 36.469C95.0141 36.3658 94.539 36.1115 94.1661 35.7383C93.7932 35.365 93.5394 34.8895 93.4369 34.372C93.3343 33.8544 93.3875 33.3181 93.5899 32.8308C93.7922 32.3436 94.1344 31.9273 94.5734 31.6346C95.0124 31.3419 95.5283 31.1859 96.0559 31.1865C96.406 31.1865 96.7526 31.2555 97.076 31.3896C97.3995 31.5237 97.6933 31.7201 97.9407 31.9678C98.1881 32.2155 98.3842 32.5095 98.518 32.8331C98.6517 33.1567 98.7203 33.5034 98.7199 33.8535Z" fill="#2E2E2E"/>
<path d="M6.912 103.948V124.756H3.24V104.092C3.24 103.084 3.084 102.4 2.772 102.04C2.46 101.656 1.896 101.416 1.08 101.32C0.672 101.296 0.408 101.176 0.288 100.96C0.168 100.744 0.108 100.528 0.108 100.312C0.084 100.072 0.168 99.844 0.36 99.628C0.552 99.412 0.768 99.304 1.008 99.304H8.892C9.444 99.304 10.104 99.316 10.872 99.34C11.64 99.364 12.324 99.388 12.924 99.412C13.788 99.46 14.652 99.628 15.516 99.916C16.404 100.204 17.196 100.636 17.892 101.212C18.588 101.788 19.152 102.508 19.584 103.372C20.04 104.236 20.28 105.256 20.304 106.432C20.304 107.512 20.076 108.508 19.62 109.42C19.188 110.308 18.6 111.076 17.856 111.724C17.088 112.396 16.2 112.912 15.192 113.272C14.184 113.632 13.104 113.812 11.952 113.812H9.036C8.628 113.812 8.316 113.68 8.1 113.416C7.908 113.152 7.812 112.852 7.812 112.516C7.812 112.204 7.908 111.916 8.1 111.652C8.292 111.364 8.592 111.22 9 111.22H11.808C12.312 111.22 12.828 111.148 13.356 111.004C13.908 110.836 14.4 110.572 14.832 110.212C15.264 109.852 15.624 109.372 15.912 108.772C16.2 108.148 16.344 107.368 16.344 106.432C16.344 104.728 15.852 103.54 14.868 102.868C13.908 102.196 12.696 101.86 11.232 101.86C11.04 101.86 10.788 101.872 10.476 101.896C10.164 101.896 9.84 101.908 9.504 101.932C9.168 101.932 8.856 101.944 8.568 101.968C8.304 101.992 8.124 102.004 8.028 102.004C7.764 102.052 7.56 102.1 7.416 102.148C7.272 102.172 7.164 102.232 7.092 102.328C7.02 102.448 6.972 102.64 6.948 102.904C6.924 103.144 6.912 103.492 6.912 103.948ZM33.4553 124.756V122.812C32.8073 123.532 31.9913 124.096 31.0073 124.504C30.0473 124.936 28.7753 125.152 27.1913 125.152C25.7273 125.152 24.5393 124.696 23.6273 123.784C22.7153 122.872 22.2593 121.696 22.2593 120.256C22.2593 119.056 22.5593 118.048 23.1593 117.232C23.7833 116.416 24.5633 115.756 25.4993 115.252C26.4353 114.748 27.4553 114.388 28.5593 114.172C29.6873 113.956 30.7553 113.848 31.7633 113.848C31.9073 113.848 32.0753 113.848 32.2673 113.848C32.4593 113.848 32.6393 113.836 32.8073 113.812C32.9753 113.812 33.1193 113.812 33.2393 113.812C33.3593 113.788 33.4313 113.776 33.4553 113.776V112.84C33.4553 112.408 33.3953 111.964 33.2753 111.508C33.1553 111.028 32.9633 110.608 32.6993 110.248C32.4113 109.864 32.0273 109.552 31.5473 109.312C31.0673 109.072 30.4673 108.952 29.7473 108.952C28.6673 108.952 27.8273 109.216 27.2273 109.744C26.6273 110.272 26.3273 111.04 26.3273 112.048H22.4753C22.4753 111.448 22.6073 110.836 22.8713 110.212C23.1593 109.564 23.6153 108.976 24.2393 108.448C24.8393 107.944 25.6073 107.524 26.5433 107.188C27.4793 106.852 28.5953 106.684 29.8913 106.684C32.1233 106.684 33.8633 107.248 35.1113 108.376C36.3593 109.48 36.9833 111.004 36.9833 112.948V124.756H33.4553ZM33.4553 118.42V116.044C32.9753 116.044 32.3873 116.068 31.6913 116.116C30.9953 116.14 30.3113 116.224 29.6393 116.368C28.6553 116.608 27.8153 116.992 27.1193 117.52C26.4233 118.048 26.0753 118.84 26.0753 119.896C26.0753 120.136 26.0993 120.412 26.1473 120.724C26.2193 121.012 26.3513 121.276 26.5433 121.516C26.7353 121.78 26.9993 121.996 27.3353 122.164C27.6713 122.332 28.1153 122.416 28.6673 122.416C29.2673 122.416 29.8433 122.332 30.3953 122.164C30.9713 121.972 31.4873 121.696 31.9433 121.336C32.3993 121 32.7593 120.592 33.0233 120.112C33.3113 119.608 33.4553 119.044 33.4553 118.42ZM42.3304 124.756V111.94C42.3304 111.628 42.3184 111.352 42.2944 111.112C42.2944 110.848 42.2704 110.608 42.2224 110.392C42.1984 110.176 42.1264 109.996 42.0064 109.852C41.9104 109.684 41.7784 109.528 41.6104 109.384C41.4424 109.288 41.2384 109.216 40.9984 109.168C40.7824 109.096 40.5664 109.06 40.3504 109.06C39.9904 109.06 39.7144 108.952 39.5224 108.736C39.3544 108.52 39.2704 108.268 39.2704 107.98C39.2704 107.74 39.3544 107.524 39.5224 107.332C39.7144 107.14 39.9304 107.044 40.1704 107.044H43.9864C44.5624 107.044 45.0184 107.236 45.3544 107.62C45.7144 108.004 45.8944 108.292 45.8944 108.484V109.78C45.9184 109.636 46.0504 109.396 46.2904 109.06C46.5544 108.724 46.9144 108.388 47.3704 108.052C47.8264 107.716 48.3664 107.428 48.9904 107.188C49.6384 106.924 50.3824 106.792 51.2224 106.792H53.2024V110.392C50.7784 110.032 48.9544 110.296 47.7304 111.184C46.5064 112.072 45.8944 113.668 45.8944 115.972V124.756H42.3304ZM65.2497 122.344V124.756C64.7217 124.876 64.1217 124.96 63.4497 125.008C62.7777 125.08 62.2617 125.116 61.9017 125.116C60.6777 125.116 59.7057 124.996 58.9857 124.756C58.2657 124.516 57.7137 124.156 57.3297 123.676C56.9457 123.22 56.6937 122.656 56.5737 121.984C56.4777 121.312 56.4297 120.544 56.4297 119.68V109.528H53.5497V107.044H56.4297V104.164L59.9217 100.888V107.044H64.8897V109.528H59.9577V120.328C59.9577 120.856 60.0057 121.276 60.1017 121.588C60.2217 121.876 60.4017 122.092 60.6417 122.236C61.0017 122.452 61.5897 122.584 62.4057 122.632C63.2217 122.656 64.1697 122.56 65.2497 122.344ZM72.2557 108.592V110.644C72.3517 110.404 72.5557 110.068 72.8677 109.636C73.1797 109.204 73.5877 108.784 74.0917 108.376C74.6197 107.944 75.2437 107.572 75.9637 107.26C76.6837 106.924 77.5357 106.744 78.5197 106.72C80.2477 106.696 81.6277 107.164 82.6597 108.124C83.6917 109.06 84.2077 110.176 84.2077 111.472V124.756H80.6797V113.236C80.6797 112.3 80.4637 111.472 80.0317 110.752C79.6237 110.008 78.8077 109.648 77.5837 109.672C76.9837 109.696 76.3597 109.912 75.7117 110.32C75.0877 110.704 74.5117 111.196 73.9837 111.796C73.4797 112.42 73.0597 113.116 72.7237 113.884C72.3877 114.628 72.2197 115.372 72.2197 116.116V124.756H68.6917V111.94C68.6917 111.628 68.6797 111.352 68.6557 111.112C68.6557 110.848 68.6317 110.608 68.5837 110.392C68.5597 110.176 68.4877 109.996 68.3677 109.852C68.2717 109.684 68.1397 109.528 67.9717 109.384C67.8037 109.264 67.5997 109.18 67.3597 109.132C67.1437 109.06 66.9277 109.024 66.7117 109.024C66.3517 109.024 66.0757 108.928 65.8837 108.736C65.7157 108.52 65.6317 108.268 65.6317 107.98C65.6317 107.74 65.7157 107.524 65.8837 107.332C66.0757 107.14 66.2917 107.044 66.5317 107.044H70.3477C70.9237 107.044 71.3797 107.248 71.7157 107.656C72.0757 108.04 72.2557 108.352 72.2557 108.592ZM96.7469 125.116C95.4509 125.116 94.2389 124.9 93.1109 124.468C91.9829 124.036 90.9869 123.388 90.1229 122.524C89.2829 121.684 88.6229 120.652 88.1429 119.428C87.6629 118.204 87.4229 116.812 87.4229 115.252C87.4229 113.884 87.6389 112.672 88.0709 111.616C88.5269 110.536 89.1509 109.636 89.9429 108.916C90.7589 108.196 91.7069 107.644 92.7869 107.26C93.8909 106.876 95.0909 106.684 96.3869 106.684C97.3229 106.684 98.2589 106.864 99.1949 107.224C100.155 107.56 101.007 108.052 101.751 108.7C102.519 109.372 103.143 110.2 103.623 111.184C104.103 112.144 104.343 113.248 104.343 114.496V116.548H91.2029C91.3709 118.348 91.9829 119.788 93.0389 120.868C94.1189 121.924 95.6549 122.548 97.6469 122.74C97.9829 122.788 98.6309 122.764 99.5909 122.668C100.575 122.572 101.571 122.308 102.579 121.876C102.867 121.756 103.119 121.756 103.335 121.876C103.575 121.996 103.743 122.164 103.839 122.38C103.935 122.62 103.947 122.872 103.875 123.136C103.803 123.4 103.611 123.616 103.299 123.784C102.387 124.288 101.427 124.636 100.419 124.828C99.4109 125.02 98.1869 125.116 96.7469 125.116ZM96.2789 108.88C95.1029 108.88 93.9989 109.276 92.9669 110.068C91.9589 110.86 91.3709 112.18 91.2029 114.028H100.671C100.671 112.156 100.215 110.836 99.3029 110.068C98.3909 109.276 97.3829 108.88 96.2789 108.88ZM108.389 124.756V111.94C108.389 111.628 108.377 111.352 108.353 111.112C108.353 110.848 108.329 110.608 108.281 110.392C108.257 110.176 108.185 109.996 108.065 109.852C107.969 109.684 107.837 109.528 107.669 109.384C107.501 109.288 107.297 109.216 107.057 109.168C106.841 109.096 106.625 109.06 106.409 109.06C106.049 109.06 105.773 108.952 105.581 108.736C105.413 108.52 105.329 108.268 105.329 107.98C105.329 107.74 105.413 107.524 105.581 107.332C105.773 107.14 105.989 107.044 106.229 107.044H110.045C110.621 107.044 111.077 107.236 111.413 107.62C111.773 108.004 111.953 108.292 111.953 108.484V109.78C111.977 109.636 112.109 109.396 112.349 109.06C112.613 108.724 112.973 108.388 113.429 108.052C113.885 107.716 114.425 107.428 115.049 107.188C115.697 106.924 116.441 106.792 117.281 106.792H119.261V110.392C116.837 110.032 115.013 110.296 113.789 111.184C112.565 112.072 111.953 113.668 111.953 115.972V124.756H108.389ZM138.115 103.948V124.756H134.443V104.092C134.443 103.084 134.287 102.4 133.975 102.04C133.663 101.656 133.099 101.416 132.283 101.32C131.875 101.296 131.611 101.176 131.491 100.96C131.371 100.744 131.311 100.528 131.311 100.312C131.287 100.072 131.371 99.844 131.563 99.628C131.755 99.412 131.971 99.304 132.211 99.304H140.095C140.647 99.304 141.307 99.316 142.075 99.34C142.843 99.364 143.527 99.388 144.127 99.412C144.991 99.46 145.855 99.628 146.719 99.916C147.607 100.204 148.399 100.636 149.095 101.212C149.791 101.788 150.355 102.508 150.787 103.372C151.243 104.236 151.483 105.256 151.507 106.432C151.507 107.512 151.279 108.508 150.823 109.42C150.391 110.308 149.803 111.076 149.059 111.724C148.291 112.396 147.403 112.912 146.395 113.272C145.387 113.632 144.307 113.812 143.155 113.812H140.239C139.831 113.812 139.519 113.68 139.303 113.416C139.111 113.152 139.015 112.852 139.015 112.516C139.015 112.204 139.111 111.916 139.303 111.652C139.495 111.364 139.795 111.22 140.203 111.22H143.011C143.515 111.22 144.031 111.148 144.559 111.004C145.111 110.836 145.603 110.572 146.035 110.212C146.467 109.852 146.827 109.372 147.115 108.772C147.403 108.148 147.547 107.368 147.547 106.432C147.547 104.728 147.055 103.54 146.071 102.868C145.111 102.196 143.899 101.86 142.435 101.86C142.243 101.86 141.991 101.872 141.679 101.896C141.367 101.896 141.043 101.908 140.707 101.932C140.371 101.932 140.059 101.944 139.771 101.968C139.507 101.992 139.327 102.004 139.231 102.004C138.967 102.052 138.763 102.1 138.619 102.148C138.475 102.172 138.367 102.232 138.295 102.328C138.223 102.448 138.175 102.64 138.151 102.904C138.127 103.144 138.115 103.492 138.115 103.948ZM164.658 124.756V122.812C164.01 123.532 163.194 124.096 162.21 124.504C161.25 124.936 159.978 125.152 158.394 125.152C156.93 125.152 155.742 124.696 154.83 123.784C153.918 122.872 153.462 121.696 153.462 120.256C153.462 119.056 153.762 118.048 154.362 117.232C154.986 116.416 155.766 115.756 156.702 115.252C157.638 114.748 158.658 114.388 159.762 114.172C160.89 113.956 161.958 113.848 162.966 113.848C163.11 113.848 163.278 113.848 163.47 113.848C163.662 113.848 163.842 113.836 164.01 113.812C164.178 113.812 164.322 113.812 164.442 113.812C164.562 113.788 164.634 113.776 164.658 113.776V112.84C164.658 112.408 164.598 111.964 164.478 111.508C164.358 111.028 164.166 110.608 163.902 110.248C163.614 109.864 163.23 109.552 162.75 109.312C162.27 109.072 161.67 108.952 160.95 108.952C159.87 108.952 159.03 109.216 158.43 109.744C157.83 110.272 157.53 111.04 157.53 112.048H153.678C153.678 111.448 153.81 110.836 154.074 110.212C154.362 109.564 154.818 108.976 155.442 108.448C156.042 107.944 156.81 107.524 157.746 107.188C158.682 106.852 159.798 106.684 161.094 106.684C163.326 106.684 165.066 107.248 166.314 108.376C167.562 109.48 168.186 111.004 168.186 112.948V124.756H164.658ZM164.658 118.42V116.044C164.178 116.044 163.59 116.068 162.894 116.116C162.198 116.14 161.514 116.224 160.842 116.368C159.858 116.608 159.018 116.992 158.322 117.52C157.626 118.048 157.278 118.84 157.278 119.896C157.278 120.136 157.302 120.412 157.35 120.724C157.422 121.012 157.554 121.276 157.746 121.516C157.938 121.78 158.202 121.996 158.538 122.164C158.874 122.332 159.318 122.416 159.87 122.416C160.47 122.416 161.046 122.332 161.598 122.164C162.174 121.972 162.69 121.696 163.146 121.336C163.602 121 163.962 120.592 164.226 120.112C164.514 119.608 164.658 119.044 164.658 118.42ZM176.846 108.592V110.644C176.942 110.404 177.146 110.068 177.458 109.636C177.77 109.204 178.178 108.784 178.682 108.376C179.21 107.944 179.834 107.572 180.554 107.26C181.274 106.924 182.126 106.744 183.11 106.72C184.838 106.696 186.218 107.164 187.25 108.124C188.282 109.06 188.798 110.176 188.798 111.472V124.756H185.27V113.236C185.27 112.3 185.054 111.472 184.622 110.752C184.214 110.008 183.398 109.648 182.174 109.672C181.574 109.696 180.95 109.912 180.302 110.32C179.678 110.704 179.102 111.196 178.574 111.796C178.07 112.42 177.65 113.116 177.314 113.884C176.978 114.628 176.81 115.372 176.81 116.116V124.756H173.282V111.94C173.282 111.628 173.27 111.352 173.246 111.112C173.246 110.848 173.222 110.608 173.174 110.392C173.15 110.176 173.078 109.996 172.958 109.852C172.861 109.684 172.73 109.528 172.562 109.384C172.394 109.264 172.19 109.18 171.95 109.132C171.734 109.06 171.517 109.024 171.302 109.024C170.942 109.024 170.666 108.928 170.474 108.736C170.305 108.52 170.221 108.268 170.221 107.98C170.221 107.74 170.305 107.524 170.474 107.332C170.666 107.14 170.882 107.044 171.122 107.044H174.938C175.514 107.044 175.97 107.248 176.306 107.656C176.666 108.04 176.846 108.352 176.846 108.592ZM201.337 125.116C200.041 125.116 198.829 124.9 197.701 124.468C196.573 124.036 195.577 123.388 194.713 122.524C193.873 121.684 193.213 120.652 192.733 119.428C192.253 118.204 192.013 116.812 192.013 115.252C192.013 113.884 192.229 112.672 192.661 111.616C193.117 110.536 193.741 109.636 194.533 108.916C195.349 108.196 196.297 107.644 197.377 107.26C198.481 106.876 199.681 106.684 200.977 106.684C201.913 106.684 202.849 106.864 203.785 107.224C204.745 107.56 205.597 108.052 206.341 108.7C207.109 109.372 207.733 110.2 208.213 111.184C208.693 112.144 208.933 113.248 208.933 114.496V116.548H195.793C195.961 118.348 196.573 119.788 197.629 120.868C198.709 121.924 200.245 122.548 202.237 122.74C202.573 122.788 203.221 122.764 204.181 122.668C205.165 122.572 206.161 122.308 207.169 121.876C207.457 121.756 207.709 121.756 207.925 121.876C208.165 121.996 208.333 122.164 208.429 122.38C208.525 122.62 208.537 122.872 208.465 123.136C208.393 123.4 208.201 123.616 207.889 123.784C206.977 124.288 206.017 124.636 205.009 124.828C204.001 125.02 202.777 125.116 201.337 125.116ZM200.869 108.88C199.693 108.88 198.589 109.276 197.557 110.068C196.549 110.86 195.961 112.18 195.793 114.028H205.261C205.261 112.156 204.805 110.836 203.893 110.068C202.981 109.276 201.973 108.88 200.869 108.88ZM216.507 100.672V124.756H212.943V103.66C212.943 103.372 212.931 103.108 212.907 102.868C212.907 102.604 212.883 102.364 212.835 102.148C212.811 101.932 212.739 101.752 212.619 101.608C212.523 101.44 212.391 101.284 212.223 101.14C212.055 101.02 211.851 100.924 211.611 100.852C211.395 100.78 211.179 100.744 210.963 100.744C210.603 100.744 210.327 100.648 210.135 100.456C209.967 100.264 209.883 100.024 209.883 99.736C209.883 99.496 209.967 99.28 210.135 99.088C210.327 98.896 210.543 98.8 210.783 98.8H214.599C215.175 98.8 215.631 99.016 215.967 99.448C216.327 99.856 216.507 100.264 216.507 100.672Z" fill="#060606"/>
</svg>
