<svg width="500" height="308" viewBox="0 0 500 308" fill="none" xmlns="http://www.w3.org/2000/svg">
<path fill-rule="evenodd" clip-rule="evenodd" d="M150.592 262.364H180.68V306.113H147.366C141.207 306.113 136.485 305.61 133.199 304.603C129.168 303.34 125.476 301.179 122.401 298.282C119.326 295.386 116.949 291.83 115.447 287.881C113.565 283.042 112.624 277.263 112.624 270.546C112.624 257.538 115.454 247.925 121.113 241.706C126.772 235.488 135.521 232.379 147.359 232.379H174.157C175.707 232.376 177.208 232.923 178.393 233.923C179.577 234.924 180.368 236.312 180.624 237.841C180.88 239.37 180.584 240.941 179.79 242.272C178.996 243.604 177.755 244.61 176.288 245.112H147.366C141.271 245.112 136.833 247.082 134.05 251.021C131.268 254.96 129.876 261.24 129.876 269.861C129.876 277.91 131.264 283.742 134.038 287.357C136.809 290.967 141.239 292.76 147.366 292.76H164.791V275.405H149.798C148.155 275.186 146.656 274.351 145.604 273.07C144.551 271.789 144.024 270.157 144.128 268.503C144.232 266.848 144.96 265.294 146.164 264.155C147.368 263.016 148.96 262.376 150.618 262.364H150.592Z" fill="#5D6567"/>
<path fill-rule="evenodd" clip-rule="evenodd" d="M251.662 245.522C256.911 245.522 260.515 246.22 262.474 247.615C264.433 249.011 265.41 251.394 265.406 254.766C265.406 258.191 264.395 260.604 262.391 262.006C260.387 263.408 256.809 264.112 251.662 264.112H217.138V306.113H232.642V277.152H250.906L267.167 306.113H284.605L266.206 275.353C271.033 274.31 274.714 271.999 277.281 268.427C279.848 264.855 281.122 260.226 281.122 254.561C281.122 246.943 279.048 241.329 274.893 237.757C270.739 234.184 264.228 232.379 255.33 232.379H223.687C221.951 232.384 220.288 233.076 219.061 234.303C217.834 235.53 217.143 237.193 217.138 238.928V238.979C217.143 240.714 217.835 242.376 219.062 243.602C220.289 244.828 221.952 245.518 223.687 245.522H251.662Z" fill="#5D6567"/>
<path fill-rule="evenodd" clip-rule="evenodd" d="M313.112 268.491C313.112 255.828 316.148 246.405 322.221 240.221C328.294 234.037 337.523 230.945 349.908 230.945C362.404 230.945 371.646 234.071 377.634 240.324C383.622 246.576 386.63 256.217 386.66 269.246C386.66 282.289 383.658 291.947 377.653 298.22C371.648 304.494 362.406 307.637 349.928 307.65C337.295 307.65 328.002 304.489 322.048 298.169C316.095 291.848 313.122 281.956 313.131 268.491H313.112ZM349.908 243.576C343.251 243.576 338.289 245.643 334.986 249.785C331.683 253.927 330.057 260.207 330.057 268.593C330.057 277.684 331.655 284.341 334.852 288.566C338.048 292.792 343.067 294.908 349.908 294.917C356.656 294.917 361.66 292.817 364.92 288.618C368.181 284.418 369.807 277.961 369.798 269.246C369.798 260.485 368.172 254.015 364.92 249.836C361.668 245.658 356.664 243.571 349.908 243.576Z" fill="#5D6567"/>
<path fill-rule="evenodd" clip-rule="evenodd" d="M480.277 245.522H444.946C440.836 245.522 437.817 246.292 435.888 247.833C433.959 249.373 433.001 251.817 433.014 255.163C433.014 257.832 433.839 259.849 435.465 261.187C437.091 262.525 439.55 263.19 442.789 263.19H463.274C471.763 263.19 477.808 264.793 481.41 267.998C485.012 271.203 486.811 276.555 486.807 284.053C486.807 291.633 484.728 297.204 480.572 300.768C476.415 304.332 469.896 306.113 461.014 306.113H423.334C421.6 306.108 419.937 305.417 418.711 304.189C417.485 302.962 416.795 301.299 416.792 299.565V299.513C416.797 297.779 417.488 296.117 418.713 294.89C419.939 293.664 421.6 292.971 423.334 292.964H458.543C462.952 292.964 466.061 292.324 467.871 291.044C469.68 289.764 470.581 287.63 470.572 284.642C470.572 281.563 469.753 279.374 468.095 278.068C466.437 276.762 463.614 276.147 459.6 276.147H441.336C432.83 276.147 426.616 274.44 422.694 271.026C418.772 267.612 416.805 262.254 416.792 254.951C416.792 247.137 418.855 241.423 422.982 237.808C427.109 234.193 433.677 232.383 442.686 232.379H480.277C482.012 232.384 483.675 233.076 484.902 234.303C486.129 235.53 486.821 237.193 486.826 238.928V238.979C486.819 240.713 486.127 242.375 484.9 243.6C483.673 244.826 482.011 245.517 480.277 245.522V245.522Z" fill="#5D6567"/>
<path fill-rule="evenodd" clip-rule="evenodd" d="M250.22 149.44C269.687 149.377 288.362 141.719 302.268 128.095C316.174 114.471 324.214 95.9586 324.677 76.4966C325.14 57.0346 317.989 38.1604 304.746 23.8912C291.503 9.62207 273.214 1.08478 253.771 0.0964418C234.329 -0.891893 215.269 5.74678 200.647 18.5995C186.025 31.4521 176.997 49.5039 175.484 68.9125C173.971 88.3211 180.092 107.554 192.545 122.517C204.998 137.481 222.8 146.993 242.16 149.03C186.613 140.01 167.901 76.6531 195.972 38.2816C202.035 29.2535 210.256 21.8815 219.888 16.8341C229.521 11.7867 240.261 9.22355 251.135 9.37709C262.009 9.53063 272.672 12.396 282.158 17.7133C291.645 23.0307 299.654 30.6318 305.459 39.8275C311.264 49.0232 314.683 59.5226 315.404 70.3736C316.125 81.2245 314.126 92.0839 309.589 101.967C305.051 111.85 298.118 120.444 289.419 126.97C280.72 133.496 270.529 137.747 259.771 139.338C273.784 121.804 281.537 98.2907 279.616 73.1706C277.696 48.1721 266.595 26.3681 250.239 11.4138C230.298 29.3193 218.513 57.3201 220.843 87.6895C221.907 102.191 226.267 116.258 233.589 128.82C236.756 125.785 239.688 122.513 242.359 119.032C256.692 100.378 259.061 76.954 250.559 55.0923C251.02 72.4536 248.639 92.1835 236.623 105.236C234.754 99.1996 233.567 92.9726 233.083 86.6717C231.502 65.9559 237.564 45.381 250.169 29.697C260.205 42.4603 266.189 57.9361 267.351 74.1308C268.906 94.4433 263.107 114.608 251.007 130.171C248.268 133.921 245.233 137.444 241.93 140.708C244.489 143.798 247.259 146.707 250.22 149.414V149.44ZM259.739 139.332C259.208 139.972 258.67 140.65 258.12 141.291C258.67 140.65 259.208 139.997 259.739 139.332Z" fill="#96C263"/>
<path fill-rule="evenodd" clip-rule="evenodd" d="M44.5751 294.008C46.1099 294.008 47.6102 293.553 48.8863 292.7C50.1624 291.847 51.1568 290.635 51.7439 289.217C52.3309 287.799 52.4842 286.238 52.1843 284.733C51.8844 283.228 51.1448 281.845 50.0591 280.761C48.9734 279.676 47.5903 278.937 46.0848 278.639C44.5793 278.34 43.0191 278.495 41.6015 279.083C40.1839 279.671 38.9725 280.666 38.1208 281.943C37.269 283.22 36.815 284.721 36.8163 286.256C36.8197 288.312 37.6384 290.283 39.0929 291.736C40.5474 293.189 42.5189 294.006 44.5751 294.008V294.008Z" fill="#5D6567"/>
<path fill-rule="evenodd" clip-rule="evenodd" d="M17.1692 306.113H0L31.4769 239.908C37.2384 230.023 53.4602 230.023 59.2217 239.908L90.705 306.113H73.5358L46.1495 248.819C45.1252 246.437 45.4709 246.841 44.5683 248.767L17.1692 306.113Z" fill="#5D6567"/>
<path d="M55.0368 185.722L37.1364 185.725L37.1397 204.563L31.5147 204.564L31.5073 161.908L57.9331 161.903L57.9339 166.532L37.1331 166.536L37.1356 181.125L55.036 181.122L55.0368 185.722ZM110.301 161.894L110.306 190.898C110.287 194.921 109.018 198.212 106.499 200.771C103.999 203.33 100.601 204.767 96.3043 205.08L94.8101 205.139C90.1422 205.14 86.4213 203.88 83.6474 201.361C80.8735 198.842 79.4666 195.376 79.4268 190.962L79.4217 161.899L84.9881 161.898L84.9932 190.785C84.9937 193.871 85.8438 196.273 87.5433 197.992C89.2428 199.69 91.6648 200.54 94.8093 200.539C97.9929 200.539 100.424 199.689 102.104 197.989C103.803 196.289 104.652 193.897 104.651 190.811L104.646 161.895L110.301 161.894ZM167.568 204.54L161.914 204.541L140.434 171.674L140.439 204.545L134.785 204.546L134.778 161.89L140.432 161.889L161.971 194.902L161.965 161.885L167.561 161.884L167.568 204.54ZM193.158 204.536L193.151 161.879L205.192 161.877C208.903 161.877 212.184 162.696 215.036 164.336C217.888 165.977 220.086 168.31 221.629 171.337C223.192 174.364 223.984 177.841 224.004 181.767L224.005 184.491C224.005 188.515 223.225 192.04 221.663 195.068C220.12 198.095 217.904 200.42 215.014 202.042C212.143 203.663 208.793 204.494 204.965 204.534L193.158 204.536ZM198.777 166.507L198.783 199.935L204.701 199.934C209.037 199.933 212.405 198.585 214.807 195.889C217.229 193.194 218.439 189.355 218.438 184.375L218.438 181.885C218.437 177.041 217.294 173.281 215.008 170.606C212.742 167.911 209.519 166.544 205.339 166.506L198.777 166.507ZM271.042 193.389L253.171 193.392L249.159 204.526L243.358 204.527L259.64 161.868L264.562 161.867L280.887 204.52L275.116 204.521L271.042 193.389ZM254.869 188.763L269.371 188.761L262.102 168.811L254.869 188.763ZM333.253 190.976C332.726 195.488 331.057 198.974 328.245 201.436C325.452 203.878 321.732 205.099 317.083 205.1C312.044 205.101 308.001 203.295 304.953 199.682C301.925 196.069 300.411 191.236 300.41 185.181L300.409 181.079C300.408 177.115 301.111 173.628 302.517 170.62C303.942 167.612 305.953 165.307 308.551 163.705C311.148 162.083 314.156 161.272 317.574 161.272C322.105 161.271 325.738 162.54 328.473 165.078C331.207 167.597 332.8 171.093 333.25 175.566L327.596 175.567C327.107 172.168 326.042 169.708 324.401 168.185C322.78 166.661 320.504 165.9 317.574 165.901C313.981 165.901 311.159 167.23 309.108 169.886C307.077 172.543 306.063 176.323 306.063 181.225L306.064 185.356C306.065 189.985 307.032 193.666 308.966 196.4C310.9 199.134 313.606 200.501 317.082 200.5C320.207 200.5 322.6 199.796 324.26 198.39C325.939 196.964 327.052 194.493 327.598 190.977L333.253 190.976ZM362.595 204.506L356.97 204.507L356.963 161.851L362.588 161.85L362.595 204.506ZM421.317 184.545C421.317 188.724 420.615 192.377 419.209 195.502C417.804 198.608 415.812 200.981 413.234 202.622C410.656 204.263 407.648 205.084 404.211 205.085C400.852 205.085 397.873 204.266 395.275 202.625C392.677 200.966 390.655 198.612 389.209 195.566C387.783 192.5 387.05 188.955 387.01 184.931L387.01 181.855C387.009 177.754 387.721 174.131 389.146 170.986C390.572 167.841 392.583 165.438 395.18 163.778C397.797 162.098 400.785 161.257 404.145 161.257C407.563 161.256 410.571 162.086 413.169 163.745C415.786 165.385 417.798 167.778 419.205 170.922C420.612 174.047 421.316 177.689 421.316 181.849L421.317 184.545ZM415.721 181.792C415.72 176.733 414.703 172.856 412.672 170.161C410.64 167.447 407.798 166.09 404.146 166.091C400.591 166.091 397.788 167.449 395.738 170.164C393.707 172.86 392.663 176.61 392.605 181.415L392.606 184.55C392.607 189.452 393.633 193.309 395.684 196.121C397.755 198.914 400.597 200.31 404.21 200.309C407.843 200.309 410.655 198.99 412.647 196.353C414.639 193.696 415.663 189.897 415.721 184.956L415.721 181.792ZM406.897 150.358L413.459 150.357L405.609 158.971L401.244 158.972L406.897 150.358ZM478.141 204.486L472.487 204.487L451.006 171.62L451.012 204.491L445.358 204.492L445.35 161.835L451.005 161.834L472.543 194.848L472.538 161.831L478.133 161.83L478.141 204.486Z" fill="#5D6567"/>
</svg>
